<mxfile host="app.diagrams.net" agent="Mozilla/5.0 (Windows NT 10.0; Win64; x64) AppleWebKit/537.36 (KHTML, like Gecko) Chrome/133.0.0.0 Safari/537.36" version="26.0.15">
  <diagram name="PÃ¡gina-1" id="raROPL-AR90-nA5Fcj93">
    <mxGraphModel dx="6782" dy="1683" grid="1" gridSize="10" guides="1" tooltips="1" connect="1" arrows="1" fold="1" page="1" pageScale="1" pageWidth="827" pageHeight="1169" math="0" shadow="0">
      <root>
        <mxCell id="0" />
        <mxCell id="1" parent="0" />
        <mxCell id="l7yQQ9J1oQ1kBQXDqNkh-148" value="" style="shape=folder;fontStyle=1;spacingTop=10;tabWidth=40;tabHeight=14;tabPosition=left;html=1;whiteSpace=wrap;fontFamily=Helvetica;fontSize=14;fontColor=default;labelBackgroundColor=default;" vertex="1" parent="1">
          <mxGeometry x="-3580" y="590" width="1720" height="820" as="geometry" />
        </mxCell>
        <mxCell id="l7yQQ9J1oQ1kBQXDqNkh-136" value="&lt;div&gt;&amp;lt;&amp;lt; Static &amp;gt;&amp;gt;&lt;/div&gt;IndexUI" style="swimlane;fontStyle=0;childLayout=stackLayout;horizontal=1;startSize=40;fillColor=none;horizontalStack=0;resizeParent=1;resizeParentMax=0;resizeLast=0;collapsible=1;marginBottom=0;whiteSpace=wrap;html=1;" vertex="1" parent="1">
          <mxGeometry x="-2424" y="1031" width="140" height="150" as="geometry" />
        </mxCell>
        <mxCell id="l7yQQ9J1oQ1kBQXDqNkh-137" value="+ main()&lt;div&gt;+ logout()&lt;/div&gt;" style="text;strokeColor=none;fillColor=none;align=left;verticalAlign=top;spacingLeft=4;spacingRight=4;overflow=hidden;rotatable=0;points=[[0,0.5],[1,0.5]];portConstraint=eastwest;whiteSpace=wrap;html=1;" vertex="1" parent="l7yQQ9J1oQ1kBQXDqNkh-136">
          <mxGeometry y="40" width="140" height="110" as="geometry" />
        </mxCell>
        <mxCell id="l7yQQ9J1oQ1kBQXDqNkh-138" style="rounded=0;orthogonalLoop=1;jettySize=auto;html=1;exitX=0.5;exitY=0;exitDx=0;exitDy=0;entryX=0;entryY=0;entryDx=0;entryDy=0;endArrow=open;endFill=0;dashed=1;" edge="1" parent="l7yQQ9J1oQ1kBQXDqNkh-136" target="l7yQQ9J1oQ1kBQXDqNkh-143">
          <mxGeometry relative="1" as="geometry">
            <mxPoint x="140" y="150" as="sourcePoint" />
            <mxPoint x="38" y="100" as="targetPoint" />
          </mxGeometry>
        </mxCell>
        <mxCell id="l7yQQ9J1oQ1kBQXDqNkh-139" value="&lt;div&gt;&amp;lt;&amp;lt; Static &amp;gt;&amp;gt;&lt;/div&gt;&lt;div&gt;ui_Atendimento&lt;/div&gt;" style="swimlane;fontStyle=0;childLayout=stackLayout;horizontal=1;startSize=40;fillColor=none;horizontalStack=0;resizeParent=1;resizeParentMax=0;resizeLast=0;collapsible=1;marginBottom=0;whiteSpace=wrap;html=1;" vertex="1" parent="1">
          <mxGeometry x="-2441" y="890" width="194" height="110" as="geometry" />
        </mxCell>
        <mxCell id="l7yQQ9J1oQ1kBQXDqNkh-140" value="+ main()&lt;div&gt;+ manter_Atendimento()&lt;/div&gt;&lt;div&gt;+ manter_Dimensionamento()&lt;br&gt;&lt;div&gt;&lt;br&gt;&lt;/div&gt;&lt;div&gt;&lt;br&gt;&lt;/div&gt;&lt;div&gt;&lt;br&gt;&lt;div&gt;&lt;br&gt;&lt;/div&gt;&lt;div&gt;&lt;br&gt;&lt;/div&gt;&lt;/div&gt;&lt;/div&gt;" style="text;strokeColor=none;fillColor=none;align=left;verticalAlign=top;spacingLeft=4;spacingRight=4;overflow=hidden;rotatable=0;points=[[0,0.5],[1,0.5]];portConstraint=eastwest;whiteSpace=wrap;html=1;" vertex="1" parent="l7yQQ9J1oQ1kBQXDqNkh-139">
          <mxGeometry y="40" width="194" height="70" as="geometry" />
        </mxCell>
        <mxCell id="l7yQQ9J1oQ1kBQXDqNkh-141" value="&lt;div&gt;&amp;lt;&amp;lt; Static &amp;gt;&amp;gt;&lt;/div&gt;&lt;div&gt;ui_Clientes&lt;/div&gt;" style="swimlane;fontStyle=0;childLayout=stackLayout;horizontal=1;startSize=40;fillColor=none;horizontalStack=0;resizeParent=1;resizeParentMax=0;resizeLast=0;collapsible=1;marginBottom=0;whiteSpace=wrap;html=1;" vertex="1" parent="1">
          <mxGeometry x="-2634" y="1231" width="160" height="80" as="geometry" />
        </mxCell>
        <mxCell id="l7yQQ9J1oQ1kBQXDqNkh-142" value="+ main()&lt;div&gt;+ Manter_Clientes()&lt;/div&gt;&lt;div&gt;&lt;br&gt;&lt;/div&gt;&lt;div&gt;&lt;br&gt;&lt;div&gt;&lt;br&gt;&lt;/div&gt;&lt;div&gt;&lt;br&gt;&lt;/div&gt;&lt;/div&gt;" style="text;strokeColor=none;fillColor=none;align=left;verticalAlign=top;spacingLeft=4;spacingRight=4;overflow=hidden;rotatable=0;points=[[0,0.5],[1,0.5]];portConstraint=eastwest;whiteSpace=wrap;html=1;" vertex="1" parent="l7yQQ9J1oQ1kBQXDqNkh-141">
          <mxGeometry y="40" width="160" height="40" as="geometry" />
        </mxCell>
        <mxCell id="l7yQQ9J1oQ1kBQXDqNkh-143" value="&lt;div&gt;&amp;lt;&amp;lt; Static &amp;gt;&amp;gt;&lt;/div&gt;&lt;div&gt;ui_Login&lt;/div&gt;" style="swimlane;fontStyle=0;childLayout=stackLayout;horizontal=1;startSize=40;fillColor=none;horizontalStack=0;resizeParent=1;resizeParentMax=0;resizeLast=0;collapsible=1;marginBottom=0;whiteSpace=wrap;html=1;" vertex="1" parent="1">
          <mxGeometry x="-2244" y="1231" width="160" height="80" as="geometry" />
        </mxCell>
        <mxCell id="l7yQQ9J1oQ1kBQXDqNkh-144" value="+ main()&lt;div&gt;&lt;br&gt;&lt;/div&gt;&lt;div&gt;&lt;br&gt;&lt;div&gt;&lt;br&gt;&lt;/div&gt;&lt;div&gt;&lt;br&gt;&lt;/div&gt;&lt;/div&gt;" style="text;strokeColor=none;fillColor=none;align=left;verticalAlign=top;spacingLeft=4;spacingRight=4;overflow=hidden;rotatable=0;points=[[0,0.5],[1,0.5]];portConstraint=eastwest;whiteSpace=wrap;html=1;" vertex="1" parent="l7yQQ9J1oQ1kBQXDqNkh-143">
          <mxGeometry y="40" width="160" height="40" as="geometry" />
        </mxCell>
        <mxCell id="l7yQQ9J1oQ1kBQXDqNkh-145" style="rounded=0;orthogonalLoop=1;jettySize=auto;html=1;exitX=0.453;exitY=-0.021;exitDx=0;exitDy=0;endArrow=open;endFill=0;dashed=1;exitPerimeter=0;" edge="1" parent="1" source="l7yQQ9J1oQ1kBQXDqNkh-136" target="l7yQQ9J1oQ1kBQXDqNkh-140">
          <mxGeometry relative="1" as="geometry">
            <mxPoint x="-2481" y="1010" as="sourcePoint" />
            <mxPoint x="-2441" y="970" as="targetPoint" />
            <Array as="points">
              <mxPoint x="-2361" y="1010" />
            </Array>
          </mxGeometry>
        </mxCell>
        <mxCell id="l7yQQ9J1oQ1kBQXDqNkh-146" style="rounded=0;orthogonalLoop=1;jettySize=auto;html=1;exitX=0.5;exitY=0;exitDx=0;exitDy=0;entryX=1;entryY=0;entryDx=0;entryDy=0;endArrow=open;endFill=0;dashed=1;" edge="1" parent="1" target="l7yQQ9J1oQ1kBQXDqNkh-141">
          <mxGeometry relative="1" as="geometry">
            <mxPoint x="-2424" y="1181" as="sourcePoint" />
            <mxPoint x="-2526" y="1131" as="targetPoint" />
          </mxGeometry>
        </mxCell>
        <mxCell id="l7yQQ9J1oQ1kBQXDqNkh-147" value="Template&amp;nbsp;" style="text;align=center;fontStyle=1;verticalAlign=middle;spacingLeft=3;spacingRight=3;strokeColor=none;rotatable=0;points=[[0,0.5],[1,0.5]];portConstraint=eastwest;html=1;fontSize=25;" vertex="1" parent="1">
          <mxGeometry x="-2850" y="690" width="230" height="70" as="geometry" />
        </mxCell>
        <mxCell id="l7yQQ9J1oQ1kBQXDqNkh-149" value="&lt;div&gt;&amp;lt;&amp;lt; Static &amp;gt;&amp;gt;&lt;/div&gt;IndexUI" style="swimlane;fontStyle=0;childLayout=stackLayout;horizontal=1;startSize=40;fillColor=none;horizontalStack=0;resizeParent=1;resizeParentMax=0;resizeLast=0;collapsible=1;marginBottom=0;whiteSpace=wrap;html=1;" vertex="1" parent="1">
          <mxGeometry x="-3210" y="1065" width="160" height="110" as="geometry" />
        </mxCell>
        <mxCell id="l7yQQ9J1oQ1kBQXDqNkh-150" value="+ main()&lt;div&gt;&lt;span style=&quot;background-color: transparent; color: light-dark(rgb(0, 0, 0), rgb(255, 255, 255));&quot;&gt;+ logout()&lt;/span&gt;&lt;/div&gt;&lt;div&gt;&lt;br&gt;&lt;/div&gt;" style="text;strokeColor=none;fillColor=none;align=left;verticalAlign=top;spacingLeft=4;spacingRight=4;overflow=hidden;rotatable=0;points=[[0,0.5],[1,0.5]];portConstraint=eastwest;whiteSpace=wrap;html=1;" vertex="1" parent="l7yQQ9J1oQ1kBQXDqNkh-149">
          <mxGeometry y="40" width="160" height="70" as="geometry" />
        </mxCell>
        <mxCell id="l7yQQ9J1oQ1kBQXDqNkh-151" value="&lt;div&gt;&amp;lt;&amp;lt; Static &amp;gt;&amp;gt;&lt;/div&gt;&lt;div&gt;ui_Login&lt;/div&gt;" style="swimlane;fontStyle=0;childLayout=stackLayout;horizontal=1;startSize=40;fillColor=none;horizontalStack=0;resizeParent=1;resizeParentMax=0;resizeLast=0;collapsible=1;marginBottom=0;whiteSpace=wrap;html=1;" vertex="1" parent="1">
          <mxGeometry x="-2900" y="1015" width="160" height="80" as="geometry" />
        </mxCell>
        <mxCell id="l7yQQ9J1oQ1kBQXDqNkh-152" value="+ main()&lt;div&gt;&lt;br&gt;&lt;/div&gt;&lt;div&gt;&lt;br&gt;&lt;div&gt;&lt;br&gt;&lt;/div&gt;&lt;div&gt;&lt;br&gt;&lt;/div&gt;&lt;/div&gt;" style="text;strokeColor=none;fillColor=none;align=left;verticalAlign=top;spacingLeft=4;spacingRight=4;overflow=hidden;rotatable=0;points=[[0,0.5],[1,0.5]];portConstraint=eastwest;whiteSpace=wrap;html=1;" vertex="1" parent="l7yQQ9J1oQ1kBQXDqNkh-151">
          <mxGeometry y="40" width="160" height="40" as="geometry" />
        </mxCell>
        <mxCell id="l7yQQ9J1oQ1kBQXDqNkh-153" value="&lt;div&gt;&amp;lt;&amp;lt; Static &amp;gt;&amp;gt;&lt;/div&gt;&lt;div&gt;ui_Item&lt;/div&gt;" style="swimlane;fontStyle=0;childLayout=stackLayout;horizontal=1;startSize=40;fillColor=none;horizontalStack=0;resizeParent=1;resizeParentMax=0;resizeLast=0;collapsible=1;marginBottom=0;whiteSpace=wrap;html=1;" vertex="1" parent="1">
          <mxGeometry x="-3210" y="1250" width="160" height="80" as="geometry" />
        </mxCell>
        <mxCell id="l7yQQ9J1oQ1kBQXDqNkh-154" value="+ main()&lt;div&gt;+ manter_Item()&lt;br&gt;&lt;div&gt;&lt;br&gt;&lt;/div&gt;&lt;div&gt;&lt;br&gt;&lt;div&gt;&lt;br&gt;&lt;/div&gt;&lt;div&gt;&lt;br&gt;&lt;/div&gt;&lt;/div&gt;&lt;/div&gt;" style="text;strokeColor=none;fillColor=none;align=left;verticalAlign=top;spacingLeft=4;spacingRight=4;overflow=hidden;rotatable=0;points=[[0,0.5],[1,0.5]];portConstraint=eastwest;whiteSpace=wrap;html=1;" vertex="1" parent="l7yQQ9J1oQ1kBQXDqNkh-153">
          <mxGeometry y="40" width="160" height="40" as="geometry" />
        </mxCell>
        <mxCell id="l7yQQ9J1oQ1kBQXDqNkh-155" value="&lt;div&gt;&amp;lt;&amp;lt; Static &amp;gt;&amp;gt;&lt;/div&gt;&lt;div&gt;ui_Local&lt;/div&gt;" style="swimlane;fontStyle=0;childLayout=stackLayout;horizontal=1;startSize=40;fillColor=none;horizontalStack=0;resizeParent=1;resizeParentMax=0;resizeLast=0;collapsible=1;marginBottom=0;whiteSpace=wrap;html=1;" vertex="1" parent="1">
          <mxGeometry x="-3530" y="1075" width="160" height="80" as="geometry" />
        </mxCell>
        <mxCell id="l7yQQ9J1oQ1kBQXDqNkh-156" value="+ main()&lt;div&gt;+ manter_Local()&lt;br&gt;&lt;div&gt;&lt;br&gt;&lt;/div&gt;&lt;div&gt;&lt;br&gt;&lt;div&gt;&lt;br&gt;&lt;/div&gt;&lt;div&gt;&lt;br&gt;&lt;/div&gt;&lt;/div&gt;&lt;/div&gt;" style="text;strokeColor=none;fillColor=none;align=left;verticalAlign=top;spacingLeft=4;spacingRight=4;overflow=hidden;rotatable=0;points=[[0,0.5],[1,0.5]];portConstraint=eastwest;whiteSpace=wrap;html=1;" vertex="1" parent="l7yQQ9J1oQ1kBQXDqNkh-155">
          <mxGeometry y="40" width="160" height="40" as="geometry" />
        </mxCell>
        <mxCell id="l7yQQ9J1oQ1kBQXDqNkh-157" value="&lt;div&gt;&amp;lt;&amp;lt; Static &amp;gt;&amp;gt;&lt;/div&gt;&lt;div&gt;ui_Produto&lt;/div&gt;" style="swimlane;fontStyle=0;childLayout=stackLayout;horizontal=1;startSize=40;fillColor=none;horizontalStack=0;resizeParent=1;resizeParentMax=0;resizeLast=0;collapsible=1;marginBottom=0;whiteSpace=wrap;html=1;" vertex="1" parent="1">
          <mxGeometry x="-3530" y="935" width="160" height="80" as="geometry" />
        </mxCell>
        <mxCell id="l7yQQ9J1oQ1kBQXDqNkh-158" value="+ main()&lt;div&gt;+ Manter_Produto&lt;/div&gt;&lt;div&gt;&lt;br&gt;&lt;div&gt;&lt;br&gt;&lt;/div&gt;&lt;div&gt;&lt;br&gt;&lt;/div&gt;&lt;/div&gt;" style="text;strokeColor=none;fillColor=none;align=left;verticalAlign=top;spacingLeft=4;spacingRight=4;overflow=hidden;rotatable=0;points=[[0,0.5],[1,0.5]];portConstraint=eastwest;whiteSpace=wrap;html=1;" vertex="1" parent="l7yQQ9J1oQ1kBQXDqNkh-157">
          <mxGeometry y="40" width="160" height="40" as="geometry" />
        </mxCell>
        <mxCell id="l7yQQ9J1oQ1kBQXDqNkh-159" value="&lt;div&gt;&amp;lt;&amp;lt; Static &amp;gt;&amp;gt;&lt;/div&gt;&lt;div&gt;ui_KitSolar&lt;/div&gt;" style="swimlane;fontStyle=0;childLayout=stackLayout;horizontal=1;startSize=40;fillColor=none;horizontalStack=0;resizeParent=1;resizeParentMax=0;resizeLast=0;collapsible=1;marginBottom=0;whiteSpace=wrap;html=1;" vertex="1" parent="1">
          <mxGeometry x="-3210" y="910" width="160" height="80" as="geometry" />
        </mxCell>
        <mxCell id="l7yQQ9J1oQ1kBQXDqNkh-160" value="+ main()&lt;div&gt;+ manter_KitSolar()&lt;/div&gt;&lt;div&gt;&lt;br&gt;&lt;/div&gt;&lt;div&gt;&lt;br&gt;&lt;div&gt;&lt;br&gt;&lt;/div&gt;&lt;div&gt;&lt;br&gt;&lt;/div&gt;&lt;/div&gt;" style="text;strokeColor=none;fillColor=none;align=left;verticalAlign=top;spacingLeft=4;spacingRight=4;overflow=hidden;rotatable=0;points=[[0,0.5],[1,0.5]];portConstraint=eastwest;whiteSpace=wrap;html=1;" vertex="1" parent="l7yQQ9J1oQ1kBQXDqNkh-159">
          <mxGeometry y="40" width="160" height="40" as="geometry" />
        </mxCell>
        <mxCell id="l7yQQ9J1oQ1kBQXDqNkh-161" style="rounded=0;orthogonalLoop=1;jettySize=auto;html=1;exitX=0.5;exitY=0;exitDx=0;exitDy=0;entryX=0.49;entryY=1.006;entryDx=0;entryDy=0;entryPerimeter=0;endArrow=open;endFill=0;dashed=1;" edge="1" parent="1" source="l7yQQ9J1oQ1kBQXDqNkh-149" target="l7yQQ9J1oQ1kBQXDqNkh-160">
          <mxGeometry relative="1" as="geometry" />
        </mxCell>
        <mxCell id="l7yQQ9J1oQ1kBQXDqNkh-162" style="rounded=0;orthogonalLoop=1;jettySize=auto;html=1;exitX=1.03;exitY=0.402;exitDx=0;exitDy=0;endArrow=open;endFill=0;dashed=1;exitPerimeter=0;entryX=0;entryY=0.5;entryDx=0;entryDy=0;" edge="1" parent="1" source="l7yQQ9J1oQ1kBQXDqNkh-150" target="l7yQQ9J1oQ1kBQXDqNkh-151">
          <mxGeometry relative="1" as="geometry">
            <mxPoint x="-3110" y="1085" as="sourcePoint" />
            <mxPoint x="-2902" y="1220" as="targetPoint" />
          </mxGeometry>
        </mxCell>
        <mxCell id="l7yQQ9J1oQ1kBQXDqNkh-163" style="rounded=0;orthogonalLoop=1;jettySize=auto;html=1;exitX=0;exitY=0;exitDx=0;exitDy=0;entryX=0.49;entryY=1.006;entryDx=0;entryDy=0;entryPerimeter=0;endArrow=open;endFill=0;dashed=1;" edge="1" parent="1" source="l7yQQ9J1oQ1kBQXDqNkh-149">
          <mxGeometry relative="1" as="geometry">
            <mxPoint x="-3268" y="1065" as="sourcePoint" />
            <mxPoint x="-3370" y="1015" as="targetPoint" />
          </mxGeometry>
        </mxCell>
        <mxCell id="l7yQQ9J1oQ1kBQXDqNkh-164" style="rounded=0;orthogonalLoop=1;jettySize=auto;html=1;exitX=0;exitY=0.143;exitDx=0;exitDy=0;entryX=0.49;entryY=1.006;entryDx=0;entryDy=0;entryPerimeter=0;endArrow=open;endFill=0;dashed=1;exitPerimeter=0;" edge="1" parent="1" source="l7yQQ9J1oQ1kBQXDqNkh-150">
          <mxGeometry relative="1" as="geometry">
            <mxPoint x="-3268" y="1165" as="sourcePoint" />
            <mxPoint x="-3370" y="1115" as="targetPoint" />
          </mxGeometry>
        </mxCell>
        <mxCell id="l7yQQ9J1oQ1kBQXDqNkh-165" style="rounded=0;orthogonalLoop=1;jettySize=auto;html=1;exitX=0.499;exitY=1.033;exitDx=0;exitDy=0;entryX=0.5;entryY=0;entryDx=0;entryDy=0;endArrow=open;endFill=0;dashed=1;exitPerimeter=0;" edge="1" parent="1" source="l7yQQ9J1oQ1kBQXDqNkh-150">
          <mxGeometry relative="1" as="geometry">
            <mxPoint x="-3050" y="1145" as="sourcePoint" />
            <mxPoint x="-3135" y="1250" as="targetPoint" />
          </mxGeometry>
        </mxCell>
      </root>
    </mxGraphModel>
  </diagram>
</mxfile>
